<svg xmlns="http://www.w3.org/2000/svg" xmlns:xlink="http://www.w3.org/1999/xlink" width="1500" zoomAndPan="magnify" viewBox="0 0 1125 374.999991" height="500" preserveAspectRatio="xMidYMid meet" version="1.0"><defs><g/><clipPath id="7547303b64"><path d="M 206 210 L 296 210 L 296 368.160156 L 206 368.160156 Z M 206 210 " clip-rule="nonzero"/></clipPath><clipPath id="a6dd9002f2"><path d="M 187 6.835938 L 272 6.835938 L 272 172 L 187 172 Z M 187 6.835938 " clip-rule="nonzero"/></clipPath><clipPath id="dfc4e2e817"><path d="M 254 136 L 419.625 136 L 419.625 221 L 254 221 Z M 254 136 " clip-rule="nonzero"/></clipPath><clipPath id="198049f813"><path d="M 58.125 154 L 216 154 L 216 245 L 58.125 245 Z M 58.125 154 " clip-rule="nonzero"/></clipPath></defs><path fill="#00bf63" d="M 292.550781 74.222656 C 287.96875 74.222656 284.253906 77.933594 284.253906 82.515625 C 284.253906 87.09375 287.96875 90.808594 292.550781 90.808594 C 297.128906 90.808594 300.84375 87.09375 300.84375 82.515625 C 300.84375 77.933594 297.128906 74.222656 292.550781 74.222656 Z M 299.375 98.910156 L 299.375 191.246094 L 285.71875 191.246094 L 285.71875 98.90625 C 279.304688 96.230469 274.792969 89.902344 274.792969 82.515625 C 274.792969 72.707031 282.742188 64.757812 292.550781 64.757812 C 302.355469 64.757812 310.304688 72.707031 310.304688 82.515625 C 310.304688 89.902344 305.792969 96.234375 299.375 98.910156 " fill-opacity="1" fill-rule="nonzero"/><g clip-path="url(#7547303b64)"><path fill="#00bf63" d="M 224.089844 342.285156 C 219.511719 342.285156 215.796875 346 215.796875 350.578125 C 215.796875 355.15625 219.511719 358.871094 224.089844 358.871094 C 228.671875 358.871094 232.382812 355.15625 232.382812 350.578125 C 232.382812 346 228.671875 342.285156 224.089844 342.285156 Z M 277.738281 213.671875 C 278.121094 213.4375 278.492188 213.183594 278.855469 212.921875 C 280.894531 213.289062 282.984375 213.488281 285.117188 213.488281 L 295.964844 213.488281 C 293.46875 218.277344 289.675781 222.382812 284.855469 225.328125 C 275.769531 230.878906 264.683594 231.289062 255.203125 226.425781 C 249.992188 223.753906 243.898438 223.984375 238.902344 227.035156 C 233.90625 230.085938 230.921875 235.40625 230.921875 241.257812 L 230.921875 334.1875 C 237.335938 336.863281 241.84375 343.195312 241.84375 350.578125 C 241.84375 360.386719 233.898438 368.335938 224.089844 368.335938 C 214.285156 368.335938 206.335938 360.386719 206.335938 350.578125 C 206.335938 343.195312 210.847656 336.859375 217.261719 334.183594 L 217.261719 241.257812 C 217.261719 230.609375 222.691406 220.929688 231.78125 215.378906 C 240.875 209.824219 251.960938 209.414062 261.4375 214.277344 C 266.648438 216.949219 272.738281 216.722656 277.738281 213.671875 " fill-opacity="1" fill-rule="nonzero"/></g><path fill="#00bf63" d="M 185.375 300.769531 C 189.957031 300.769531 193.667969 297.054688 193.667969 292.476562 C 193.667969 287.898438 189.957031 284.183594 185.375 284.183594 C 180.796875 284.183594 177.082031 287.898438 177.082031 292.476562 C 177.082031 297.054688 180.796875 300.769531 185.375 300.769531 Z M 178.550781 276.082031 L 178.550781 183.746094 L 185.199219 183.746094 C 187.761719 183.746094 190.183594 184.523438 192.207031 185.917969 L 192.207031 276.085938 C 198.621094 278.761719 203.132812 285.09375 203.132812 292.476562 C 203.132812 302.285156 195.183594 310.234375 185.375 310.234375 C 175.570312 310.234375 167.621094 302.285156 167.621094 292.476562 C 167.621094 285.09375 172.132812 278.757812 178.550781 276.082031 " fill-opacity="1" fill-rule="nonzero"/><g clip-path="url(#a6dd9002f2)"><path fill="#00bf63" d="M 253.835938 16.121094 C 249.253906 16.121094 245.542969 19.832031 245.542969 24.414062 C 245.542969 28.996094 249.253906 32.707031 253.835938 32.707031 C 258.417969 32.707031 262.128906 28.996094 262.128906 24.414062 C 262.128906 19.832031 258.417969 16.121094 253.835938 16.121094 Z M 260.664062 40.808594 L 260.664062 141.34375 C 260.664062 151.996094 255.234375 161.671875 246.144531 167.226562 C 237.054688 172.777344 225.964844 173.1875 216.488281 168.324219 C 212.609375 166.339844 208.246094 165.960938 204.203125 167.148438 C 199.300781 163.925781 193.59375 161.984375 187.542969 161.585938 C 189.191406 159.964844 191.035156 158.519531 193.066406 157.28125 C 202.160156 151.722656 213.246094 151.3125 222.722656 156.175781 C 227.933594 158.847656 234.027344 158.621094 239.023438 155.566406 C 244.019531 152.515625 247.003906 147.195312 247.003906 141.34375 L 247.003906 40.804688 C 240.589844 38.128906 236.078125 31.800781 236.078125 24.414062 C 236.078125 14.605469 244.027344 6.660156 253.835938 6.660156 C 263.640625 6.660156 271.589844 14.605469 271.589844 24.414062 C 271.589844 31.800781 267.078125 38.132812 260.664062 40.808594 " fill-opacity="1" fill-rule="nonzero"/></g><g clip-path="url(#dfc4e2e817)"><path fill="#c1ff72" d="M 402.046875 194.074219 C 397.464844 194.074219 393.753906 197.789062 393.753906 202.367188 C 393.753906 206.949219 397.464844 210.664062 402.046875 210.664062 C 406.625 210.664062 410.335938 206.949219 410.335938 202.367188 C 410.335938 197.789062 406.625 194.074219 402.046875 194.074219 Z M 402.046875 220.125 C 394.660156 220.125 388.328125 215.613281 385.652344 209.199219 L 285.117188 209.199219 C 274.460938 209.199219 264.789062 203.769531 259.234375 194.675781 C 253.683594 185.585938 253.269531 174.5 258.132812 165.023438 C 259.039062 163.257812 259.597656 161.394531 259.84375 159.507812 C 263.144531 154.152344 264.957031 147.914062 264.957031 141.34375 L 264.957031 136.15625 C 266.539062 137.78125 267.960938 139.601562 269.179688 141.601562 C 274.734375 150.691406 275.148438 161.777344 270.285156 171.257812 C 267.609375 176.464844 267.835938 182.558594 270.886719 187.554688 C 273.945312 192.554688 279.261719 195.539062 285.117188 195.539062 L 385.65625 195.539062 C 388.328125 189.121094 394.660156 184.613281 402.046875 184.613281 C 411.851562 184.613281 419.800781 192.5625 419.800781 202.367188 C 419.800781 212.175781 411.851562 220.125 402.046875 220.125 " fill-opacity="1" fill-rule="nonzero"/></g><path fill="#c1ff72" d="M 133.980469 125.617188 C 129.402344 125.617188 125.6875 129.328125 125.6875 133.910156 C 125.6875 138.488281 129.402344 142.203125 133.980469 142.203125 C 138.5625 142.203125 142.273438 138.488281 142.273438 133.910156 C 142.273438 129.328125 138.5625 125.617188 133.980469 125.617188 Z M 242.714844 140.742188 L 150.375 140.742188 C 147.699219 147.15625 141.367188 151.664062 133.980469 151.664062 C 124.175781 151.664062 116.226562 143.714844 116.226562 133.910156 C 116.226562 124.105469 124.175781 116.15625 133.980469 116.15625 C 141.367188 116.15625 147.699219 120.667969 150.375 127.082031 L 242.714844 127.082031 L 242.714844 140.742188 " fill-opacity="1" fill-rule="nonzero"/><g clip-path="url(#198049f813)"><path fill="#7ed957" d="M 75.882812 164.328125 C 71.300781 164.328125 67.585938 168.042969 67.585938 172.625 C 67.585938 177.203125 71.300781 180.917969 75.882812 180.917969 C 80.460938 180.917969 84.171875 177.203125 84.171875 172.625 C 84.171875 168.042969 80.460938 164.328125 75.882812 164.328125 Z M 212.789062 226.269531 C 213.453125 227.359375 214.234375 228.347656 215.097656 229.234375 C 213.707031 233.015625 212.972656 237.070312 212.972656 241.257812 L 212.972656 244.496094 C 208.179688 242 204.078125 238.210938 201.132812 233.390625 C 195.582031 224.300781 195.167969 213.214844 200.03125 203.734375 C 202.703125 198.527344 202.476562 192.433594 199.425781 187.4375 C 196.371094 182.441406 191.054688 179.453125 185.199219 179.453125 L 92.273438 179.453125 C 89.597656 185.871094 83.265625 190.378906 75.882812 190.378906 C 66.074219 190.378906 58.125 182.429688 58.125 172.625 C 58.125 162.816406 66.074219 154.871094 75.882812 154.871094 C 83.265625 154.871094 89.597656 159.378906 92.273438 165.796875 L 185.199219 165.796875 C 195.851562 165.796875 205.527344 171.222656 211.082031 180.316406 C 216.632812 189.40625 217.046875 200.496094 212.183594 209.972656 C 209.511719 215.179688 209.738281 221.273438 212.789062 226.269531 " fill-opacity="1" fill-rule="nonzero"/></g><path fill="#7ed957" d="M 343.945312 232.789062 C 339.363281 232.789062 335.652344 236.503906 335.652344 241.082031 C 335.652344 245.664062 339.363281 249.375 343.945312 249.375 C 348.527344 249.375 352.234375 245.664062 352.234375 241.082031 C 352.234375 236.503906 348.527344 232.789062 343.945312 232.789062 Z M 343.945312 258.835938 C 336.558594 258.835938 330.226562 254.328125 327.550781 247.910156 L 235.214844 247.910156 L 235.214844 241.257812 C 235.214844 238.695312 235.988281 236.277344 237.382812 234.25 L 327.554688 234.25 C 330.230469 227.835938 336.558594 223.328125 343.945312 223.328125 C 353.75 223.328125 361.699219 231.277344 361.699219 241.082031 C 361.699219 250.890625 353.75 258.835938 343.945312 258.835938 " fill-opacity="1" fill-rule="nonzero"/><g fill="#7ed957" fill-opacity="1"><g transform="translate(622.721277, 240.322839)"><g><path d="M 31.3125 0 L 8.125 0.5625 C 6.601562 0.59375 5.425781 0.203125 4.59375 -0.609375 C 3.757812 -1.421875 3.34375 -2.585938 3.34375 -4.109375 L 3.34375 -39.21875 L 12.234375 -39.21875 L 12.234375 -7.234375 L 31.3125 -7.78125 Z M 31.3125 0 "/></g></g></g><g fill="#7ed957" fill-opacity="1"><g transform="translate(663.314441, 240.322839)"><g><path d="M 29.484375 -39.21875 L 29.484375 -31.421875 L 20.578125 -31.421875 L 20.578125 -7.78125 L 29.484375 -7.78125 L 29.484375 0 L 2.78125 0 L 2.78125 -7.78125 L 11.6875 -7.78125 L 11.6875 -31.421875 L 2.78125 -31.421875 L 2.78125 -39.21875 Z M 29.484375 -39.21875 "/></g></g></g><g fill="#7ed957" fill-opacity="1"><g transform="translate(703.740865, 240.322839)"><g><path d="M 2.78125 -19.640625 C 2.78125 -23.453125 3.585938 -26.867188 5.203125 -29.890625 C 6.816406 -32.921875 9.113281 -35.320312 12.09375 -37.09375 C 15.082031 -38.875 18.65625 -39.765625 22.8125 -39.765625 C 26.957031 -39.765625 30.515625 -38.875 33.484375 -37.09375 C 36.453125 -35.320312 38.742188 -32.921875 40.359375 -29.890625 C 41.972656 -26.867188 42.78125 -23.453125 42.78125 -19.640625 C 42.78125 -15.816406 41.972656 -12.382812 40.359375 -9.34375 C 38.742188 -6.300781 36.453125 -3.890625 33.484375 -2.109375 C 30.515625 -0.328125 26.957031 0.5625 22.8125 0.5625 C 18.65625 0.5625 15.082031 -0.328125 12.09375 -2.109375 C 9.113281 -3.890625 6.816406 -6.300781 5.203125 -9.34375 C 3.585938 -12.382812 2.78125 -15.816406 2.78125 -19.640625 Z M 11.6875 -19.640625 C 11.6875 -15.859375 12.613281 -12.84375 14.46875 -10.59375 C 16.320312 -8.351562 19.101562 -7.234375 22.8125 -7.234375 C 26.519531 -7.234375 29.289062 -8.351562 31.125 -10.59375 C 32.957031 -12.84375 33.875 -15.859375 33.875 -19.640625 C 33.875 -23.378906 32.957031 -26.367188 31.125 -28.609375 C 29.289062 -30.859375 26.519531 -31.984375 22.8125 -31.984375 C 19.101562 -31.984375 16.320312 -30.859375 14.46875 -28.609375 C 12.613281 -26.367188 11.6875 -23.378906 11.6875 -19.640625 Z M 11.6875 -19.640625 "/></g></g></g><g fill="#7ed957" fill-opacity="1"><g transform="translate(757.455733, 240.322839)"><g><path d="M 33.265625 -7.78125 L 33.265625 -39.21875 L 42.15625 -39.21875 L 42.15625 0 L 24.640625 0 L 14.734375 -31.421875 L 12.234375 -31.421875 L 12.234375 0 L 3.34375 0 L 3.34375 -39.21875 L 20.859375 -39.21875 L 30.765625 -7.78125 Z M 33.265625 -7.78125 "/></g></g></g><g fill="#7ed957" fill-opacity="1"><g transform="translate(811.114975, 240.322839)"><g/></g></g><g fill="#7ed957" fill-opacity="1"><g transform="translate(834.861276, 240.322839)"><g><path d="M 2.78125 -19.640625 C 2.78125 -23.453125 3.59375 -26.867188 5.21875 -29.890625 C 6.851562 -32.921875 9.171875 -35.320312 12.171875 -37.09375 C 15.179688 -38.875 18.765625 -39.765625 22.921875 -39.765625 C 26.585938 -39.765625 29.789062 -39.132812 32.53125 -37.875 C 35.28125 -36.613281 37.5 -34.804688 39.1875 -32.453125 C 40.875 -30.097656 41.90625 -27.304688 42.28125 -24.078125 L 33.375 -24.078125 C 32.925781 -26.679688 31.753906 -28.648438 29.859375 -29.984375 C 27.972656 -31.316406 25.695312 -31.984375 23.03125 -31.984375 C 19.613281 -31.984375 16.867188 -30.9375 14.796875 -28.84375 C 12.722656 -26.75 11.6875 -23.679688 11.6875 -19.640625 C 11.6875 -15.597656 12.722656 -12.519531 14.796875 -10.40625 C 16.867188 -8.289062 19.613281 -7.234375 23.03125 -7.234375 C 25.695312 -7.234375 27.972656 -7.910156 29.859375 -9.265625 C 31.753906 -10.617188 32.925781 -12.59375 33.375 -15.1875 L 42.28125 -15.1875 C 41.90625 -11.957031 40.875 -9.164062 39.1875 -6.8125 C 37.5 -4.457031 35.28125 -2.640625 32.53125 -1.359375 C 29.789062 -0.078125 26.585938 0.5625 22.921875 0.5625 C 18.765625 0.5625 15.179688 -0.328125 12.171875 -2.109375 C 9.171875 -3.890625 6.851562 -6.300781 5.21875 -9.34375 C 3.59375 -12.382812 2.78125 -15.816406 2.78125 -19.640625 Z M 2.78125 -19.640625 "/></g></g></g><g fill="#7ed957" fill-opacity="1"><g transform="translate(888.075716, 240.322839)"><g><path d="M 21.1875 -22.859375 L 29.59375 -39.21875 L 39.109375 -39.21875 L 24.53125 -12.625 L 24.53125 0 L 15.625 0 L 15.625 -12.625 L 1.109375 -39.21875 L 10.625 -39.21875 L 18.96875 -22.859375 L 18.96875 -17.859375 L 21.1875 -17.859375 Z M 21.1875 -22.859375 "/></g></g></g><g fill="#7ed957" fill-opacity="1"><g transform="translate(936.452956, 240.322839)"><g><path d="M 17.796875 0 L 3.34375 0 L 3.34375 -39.21875 L 17.125 -39.21875 C 20.757812 -39.21875 23.773438 -38.945312 26.171875 -38.40625 C 28.566406 -37.875 30.351562 -36.921875 31.53125 -35.546875 C 32.71875 -34.171875 33.3125 -32.1875 33.3125 -29.59375 C 33.3125 -27.769531 33.023438 -26.335938 32.453125 -25.296875 C 31.878906 -24.265625 31.117188 -23.507812 30.171875 -23.03125 C 29.234375 -22.550781 28.210938 -22.234375 27.109375 -22.078125 C 26.015625 -21.929688 24.953125 -21.820312 23.921875 -21.75 L 23.921875 -19.53125 C 25.398438 -19.488281 26.867188 -19.363281 28.328125 -19.15625 C 29.796875 -18.957031 31.125 -18.566406 32.3125 -17.984375 C 33.5 -17.410156 34.445312 -16.519531 35.15625 -15.3125 C 35.863281 -14.113281 36.21875 -12.476562 36.21875 -10.40625 C 36.21875 -8.175781 35.742188 -6.375 34.796875 -5 C 33.847656 -3.632812 32.53125 -2.585938 30.84375 -1.859375 C 29.15625 -1.140625 27.195312 -0.648438 24.96875 -0.390625 C 22.75 -0.128906 20.359375 0 17.796875 0 Z M 12.234375 -31.421875 L 12.234375 -24.3125 L 18.25 -24.3125 C 19.46875 -24.3125 20.539062 -24.359375 21.46875 -24.453125 C 22.394531 -24.546875 23.117188 -24.84375 23.640625 -25.34375 C 24.160156 -25.84375 24.421875 -26.6875 24.421875 -27.875 C 24.421875 -29.050781 24.160156 -29.890625 23.640625 -30.390625 C 23.117188 -30.898438 22.394531 -31.195312 21.46875 -31.28125 C 20.539062 -31.375 19.46875 -31.421875 18.25 -31.421875 Z M 12.234375 -16.515625 L 12.234375 -7.78125 L 18.90625 -7.78125 C 20.6875 -7.78125 22.195312 -7.84375 23.4375 -7.96875 C 24.6875 -8.101562 25.644531 -8.46875 26.3125 -9.0625 C 26.976562 -9.65625 27.3125 -10.675781 27.3125 -12.125 C 27.3125 -13.601562 26.976562 -14.640625 26.3125 -15.234375 C 25.644531 -15.828125 24.6875 -16.1875 23.4375 -16.3125 C 22.195312 -16.445312 20.6875 -16.515625 18.90625 -16.515625 Z M 12.234375 -16.515625 "/></g></g></g><g fill="#7ed957" fill-opacity="1"><g transform="translate(983.606972, 240.322839)"><g><path d="M 31.3125 0 L 3.34375 0 L 3.34375 -39.21875 L 31.3125 -39.21875 L 31.3125 -31.421875 L 12.234375 -31.421875 L 12.234375 -23.53125 L 28.53125 -23.53125 L 28.53125 -15.734375 L 12.234375 -15.734375 L 12.234375 -7.78125 L 31.3125 -7.78125 Z M 31.3125 0 "/></g></g></g><g fill="#7ed957" fill-opacity="1"><g transform="translate(1025.312177, 240.322839)"><g><path d="M 12.234375 0 L 3.34375 0 L 3.34375 -39.21875 L 18.515625 -39.21875 C 20.859375 -39.21875 23.078125 -39.050781 25.171875 -38.71875 C 27.265625 -38.382812 29.125 -37.816406 30.75 -37.015625 C 32.382812 -36.222656 33.664062 -35.113281 34.59375 -33.6875 C 35.519531 -32.257812 35.984375 -30.445312 35.984375 -28.25 C 35.984375 -26.101562 35.484375 -24.425781 34.484375 -23.21875 C 33.484375 -22.019531 32.222656 -21.140625 30.703125 -20.578125 C 29.179688 -20.023438 27.625 -19.65625 26.03125 -19.46875 L 26.03125 -17.25 L 31.765625 -17.25 C 34.910156 -17.25 36.484375 -15.671875 36.484375 -12.515625 L 36.484375 0 L 27.59375 0 L 27.59375 -13.796875 L 12.234375 -13.796875 Z M 12.234375 -31.421875 L 12.234375 -21.578125 L 18.515625 -21.578125 C 20.296875 -21.578125 21.828125 -21.640625 23.109375 -21.765625 C 24.390625 -21.898438 25.375 -22.3125 26.0625 -23 C 26.75 -23.6875 27.09375 -24.847656 27.09375 -26.484375 C 27.09375 -28.148438 26.75 -29.320312 26.0625 -30 C 25.375 -30.6875 24.390625 -31.09375 23.109375 -31.21875 C 21.828125 -31.351562 20.296875 -31.421875 18.515625 -31.421875 Z M 12.234375 -31.421875 "/></g></g></g><g fill="#ffffff" fill-opacity="1"><g transform="translate(307.822493, 183.718466)"><g><path d="M 72.40625 -88.578125 C 83.53125 -88.578125 92.242188 -84.992188 98.546875 -77.828125 C 104.859375 -70.660156 108.015625 -60.367188 108.015625 -46.953125 L 108.015625 0 L 80.5 0 L 80.5 -42.65625 C 80.5 -50.570312 79.175781 -56.191406 76.53125 -59.515625 C 73.894531 -62.835938 69.253906 -64.5 62.609375 -64.5 C 57.679688 -64.5 53.351562 -63.492188 49.625 -61.484375 C 45.894531 -59.484375 43 -56.128906 40.9375 -51.421875 C 38.875 -46.722656 37.84375 -40.300781 37.84375 -32.15625 L 37.84375 0 L 10.3125 0 L 10.3125 -126.421875 L 37.84375 -126.421875 L 37.84375 -76.375 L 32.6875 -60.890625 L 39.5625 -60.890625 C 41.28125 -68.679688 44.863281 -75.242188 50.3125 -80.578125 C 55.757812 -85.910156 63.125 -88.578125 72.40625 -88.578125 Z M 72.40625 -88.578125 "/></g></g></g><g fill="#ffffff" fill-opacity="1"><g transform="translate(427.875826, 183.718466)"><g><path d="M 54.015625 -22.359375 C 59.054688 -22.359375 63.410156 -23.359375 67.078125 -25.359375 C 70.742188 -27.367188 73.609375 -30.722656 75.671875 -35.421875 C 77.742188 -40.128906 78.78125 -46.554688 78.78125 -54.703125 L 78.78125 -86.859375 L 106.296875 -86.859375 L 106.296875 0 L 78.78125 0 L 78.78125 -10.484375 L 83.9375 -25.96875 L 77.0625 -25.96875 C 75.332031 -18.289062 71.742188 -11.753906 66.296875 -6.359375 C 60.859375 -0.972656 53.492188 1.71875 44.203125 1.71875 C 33.078125 1.71875 24.359375 -1.863281 18.046875 -9.03125 C 11.742188 -16.195312 8.59375 -26.488281 8.59375 -39.90625 L 8.59375 -86.859375 L 36.125 -86.859375 L 36.125 -44.203125 C 36.125 -36.296875 37.441406 -30.675781 40.078125 -27.34375 C 42.710938 -24.019531 47.359375 -22.359375 54.015625 -22.359375 Z M 54.015625 -22.359375 "/></g></g></g><g fill="#ffffff" fill-opacity="1"><g transform="translate(546.209181, 183.718466)"><g><path d="M 37.84375 0 L 10.3125 0 L 10.3125 -126.421875 L 37.84375 -126.421875 L 37.84375 -81.53125 L 32.6875 -66.046875 L 39.5625 -66.046875 C 41.050781 -69.941406 43.082031 -73.582031 45.65625 -76.96875 C 48.238281 -80.351562 51.796875 -83.132812 56.328125 -85.3125 C 60.859375 -87.488281 66.675781 -88.578125 73.78125 -88.578125 C 82.15625 -88.578125 89.125 -86.539062 94.6875 -82.46875 C 100.25 -78.40625 104.429688 -72.960938 107.234375 -66.140625 C 110.046875 -59.316406 111.453125 -51.773438 111.453125 -43.515625 C 111.453125 -35.367188 110.046875 -27.851562 107.234375 -20.96875 C 104.429688 -14.09375 100.25 -8.59375 94.6875 -4.46875 C 89.125 -0.34375 82.15625 1.71875 73.78125 1.71875 C 66.675781 1.71875 60.859375 0.628906 56.328125 -1.546875 C 51.796875 -3.722656 48.238281 -6.53125 45.65625 -9.96875 C 43.082031 -13.414062 41.050781 -17.03125 39.5625 -20.8125 L 32.6875 -20.8125 L 37.84375 -5.328125 Z M 37.84375 -43.515625 C 37.84375 -36.179688 39.847656 -30.820312 43.859375 -27.4375 C 47.867188 -24.050781 53.546875 -22.359375 60.890625 -22.359375 C 68.335938 -22.359375 74.039062 -24.050781 78 -27.4375 C 81.957031 -30.820312 83.9375 -36.179688 83.9375 -43.515625 C 83.9375 -50.859375 81.957031 -56.191406 78 -59.515625 C 74.039062 -62.835938 68.335938 -64.5 60.890625 -64.5 C 53.546875 -64.5 47.867188 -62.835938 43.859375 -59.515625 C 39.847656 -56.191406 37.84375 -50.859375 37.84375 -43.515625 Z M 37.84375 -43.515625 "/></g></g></g><g fill="#c1ff72" fill-opacity="1"><g transform="translate(667.986532, 183.718466)"><g><path d="M 91.328125 -23.90625 C 91.328125 -19.09375 90.035156 -14.734375 87.453125 -10.828125 C 84.878906 -6.929688 80.640625 -3.863281 74.734375 -1.625 C 68.828125 0.601562 60.882812 1.71875 50.90625 1.71875 C 34.96875 1.71875 23.359375 -1.289062 16.078125 -7.3125 C 8.796875 -13.332031 5.15625 -21.382812 5.15625 -31.46875 L 32.6875 -31.46875 C 32.6875 -28.144531 34.0625 -25.222656 36.8125 -22.703125 C 39.5625 -20.179688 44.546875 -18.921875 51.765625 -18.921875 C 55.441406 -18.921875 58.367188 -19.378906 60.546875 -20.296875 C 62.722656 -21.210938 63.8125 -22.703125 63.8125 -24.765625 C 63.8125 -27.054688 62.4375 -28.773438 59.6875 -29.921875 C 56.9375 -31.066406 52.0625 -32.789062 45.0625 -35.09375 C 41.050781 -36.46875 36.921875 -37.84375 32.671875 -39.21875 C 28.429688 -40.59375 24.535156 -42.28125 20.984375 -44.28125 C 17.429688 -46.289062 14.5625 -48.898438 12.375 -52.109375 C 10.195312 -55.328125 9.109375 -59.34375 9.109375 -64.15625 C 9.109375 -71.957031 12.429688 -77.976562 19.078125 -82.21875 C 25.734375 -86.457031 35.023438 -88.578125 46.953125 -88.578125 C 56.816406 -88.578125 64.785156 -87.113281 70.859375 -84.1875 C 76.941406 -81.269531 81.382812 -77.429688 84.1875 -72.671875 C 87 -67.910156 88.40625 -62.722656 88.40625 -57.109375 L 60.890625 -57.109375 C 60.890625 -60.203125 59.710938 -62.78125 57.359375 -64.84375 C 55.015625 -66.90625 51.488281 -67.9375 46.78125 -67.9375 C 40.019531 -67.9375 36.640625 -66.273438 36.640625 -62.953125 C 36.640625 -60.890625 38.644531 -59.082031 42.65625 -57.53125 C 46.664062 -55.988281 52.113281 -54.066406 59 -51.765625 C 64.613281 -49.929688 69.882812 -48.007812 74.8125 -46 C 79.75 -44 83.734375 -41.335938 86.765625 -38.015625 C 89.804688 -34.691406 91.328125 -29.988281 91.328125 -23.90625 Z M 91.328125 -23.90625 "/></g></g></g><g fill="#c1ff72" fill-opacity="1"><g transform="translate(766.196357, 183.718466)"><g><path d="M 6.875 -23.734375 C 6.875 -31.191406 9.453125 -37.15625 14.609375 -41.625 C 19.773438 -46.09375 28.78125 -49.242188 41.625 -51.078125 L 68.96875 -54.875 C 68.96875 -58.425781 67.5625 -61.203125 64.75 -63.203125 C 61.945312 -65.210938 57.5625 -66.21875 51.59375 -66.21875 C 46.09375 -66.21875 41.851562 -65.128906 38.875 -62.953125 C 35.894531 -60.773438 34.40625 -57.675781 34.40625 -53.65625 L 8.59375 -53.65625 C 8.59375 -61 10.484375 -67.28125 14.265625 -72.5 C 18.054688 -77.71875 23.21875 -81.703125 29.75 -84.453125 C 36.289062 -87.203125 43.570312 -88.578125 51.59375 -88.578125 C 59.625 -88.578125 67.019531 -87.226562 73.78125 -84.53125 C 80.550781 -81.84375 86.023438 -77.546875 90.203125 -71.640625 C 94.390625 -65.734375 96.484375 -58.019531 96.484375 -48.5 L 96.484375 -24.078125 L 109.046875 -24.078125 L 109.046875 0 L 89.953125 0 C 85.828125 0 82.644531 -1.113281 80.40625 -3.34375 C 78.175781 -5.582031 77.0625 -8.769531 77.0625 -12.90625 L 77.0625 -14.625 L 81.359375 -24.9375 L 74.46875 -24.9375 C 73.4375 -20.125 71.628906 -15.707031 69.046875 -11.6875 C 66.472656 -7.675781 62.773438 -4.4375 57.953125 -1.96875 C 53.140625 0.488281 46.664062 1.71875 38.53125 1.71875 C 31.757812 1.71875 26.28125 0.832031 22.09375 -0.9375 C 17.914062 -2.71875 14.734375 -4.957031 12.546875 -7.65625 C 10.367188 -10.351562 8.878906 -13.160156 8.078125 -16.078125 C 7.273438 -19.003906 6.875 -21.554688 6.875 -23.734375 Z M 34.40625 -28.890625 C 34.40625 -26.367188 35.40625 -24.648438 37.40625 -23.734375 C 39.414062 -22.816406 41.566406 -22.359375 43.859375 -22.359375 C 51.429688 -22.359375 57.507812 -23.875 62.09375 -26.90625 C 66.675781 -29.945312 68.96875 -34.109375 68.96875 -39.390625 L 46.78125 -36.296875 C 42.65625 -35.722656 39.5625 -34.976562 37.5 -34.0625 C 35.4375 -33.144531 34.40625 -31.421875 34.40625 -28.890625 Z M 34.40625 -28.890625 "/></g></g></g><g fill="#c1ff72" fill-opacity="1"><g transform="translate(880.401817, 183.718466)"><g><path d="M 79.125 -102.34375 L 60.890625 -102.34375 C 56.878906 -102.34375 53.925781 -101.335938 52.03125 -99.328125 C 50.132812 -97.316406 49.1875 -93.90625 49.1875 -89.09375 L 49.1875 -86.859375 L 74.296875 -86.859375 L 74.296875 -62.78125 L 49.1875 -62.78125 L 49.1875 -24.078125 L 74.296875 -24.078125 L 74.296875 0 L 5.15625 0 L 5.15625 -24.078125 L 21.671875 -24.078125 L 21.671875 -62.78125 L 5.15625 -62.78125 L 5.15625 -86.859375 L 21.671875 -86.859375 L 21.671875 -89.953125 C 21.671875 -101.648438 25.140625 -110.648438 32.078125 -116.953125 C 39.015625 -123.265625 49.765625 -126.421875 64.328125 -126.421875 L 79.125 -126.421875 Z M 79.125 -102.34375 "/></g></g></g><g fill="#c1ff72" fill-opacity="1"><g transform="translate(964.679949, 183.718466)"><g><path d="M 6.875 -44.546875 C 6.875 -53.722656 8.820312 -61.609375 12.71875 -68.203125 C 16.625 -74.796875 22.015625 -79.835938 28.890625 -83.328125 C 35.773438 -86.828125 43.6875 -88.578125 52.625 -88.578125 C 61.6875 -88.578125 69.65625 -86.882812 76.53125 -83.5 C 83.414062 -80.125 88.804688 -75.28125 92.703125 -68.96875 C 96.609375 -62.664062 98.5625 -55.097656 98.5625 -46.265625 L 98.5625 -37.671875 L 32.6875 -37.671875 C 32.6875 -32.734375 34.546875 -28.660156 38.265625 -25.453125 C 41.992188 -22.242188 47.757812 -20.640625 55.5625 -20.640625 C 60.375 -20.640625 64.46875 -21.5 67.84375 -23.21875 C 71.226562 -24.9375 73.320312 -27.398438 74.125 -30.609375 L 101.65625 -30.609375 C 101.195312 -27.515625 99.960938 -24.101562 97.953125 -20.375 C 95.941406 -16.65625 93.046875 -13.101562 89.265625 -9.71875 C 85.484375 -6.332031 80.8125 -3.578125 75.25 -1.453125 C 69.6875 0.660156 63.125 1.71875 55.5625 1.71875 C 44.4375 1.71875 35.289062 -0.429688 28.125 -4.734375 C 20.957031 -9.035156 15.625 -14.710938 12.125 -21.765625 C 8.625 -28.816406 6.875 -36.410156 6.875 -44.546875 Z M 32.6875 -53.140625 L 72.75 -53.140625 C 72.75 -56.472656 71.316406 -59.484375 68.453125 -62.171875 C 65.585938 -64.867188 60.3125 -66.21875 52.625 -66.21875 C 44.945312 -66.21875 39.703125 -64.867188 36.890625 -62.171875 C 34.085938 -59.484375 32.6875 -56.472656 32.6875 -53.140625 Z M 32.6875 -53.140625 "/></g></g></g></svg>